<svg xmlns="http://www.w3.org/2000/svg" width="16" height="16" fill="none"><path fill="#5A5A5A" d="M10.5 11.5a1 1 0 1 0 0-2 1 1 0 0 0 0 2ZM3.5 4.5a1 1 0 1 0 0-2 1 1 0 0 0 0 2ZM13.5 15.5a2 2 0 1 1 2-2 2.006 2.006 0 0 1-2 2Zm0-3a1 1 0 1 0 0 2 1 1 0 0 0 0-2Z"/><path fill="#5A5A5A" d="M15 8a7.02 7.02 0 0 0-7-7 6.521 6.521 0 0 0-3.4.9l.55.85c.39-.188.791-.355 1.2-.5A12.568 12.568 0 0 0 5 7.5H2a5.574 5.574 0 0 1 .7-2.35l-.75-.65A6.92 6.92 0 0 0 1 8a6.999 6.999 0 0 0 7 7 6.683 6.683 0 0 0 2.6-.5l-.3-.95a5.72 5.72 0 0 1-2.6.45A10.535 10.535 0 0 1 6 8.5h8.95c.041-.163.058-.332.05-.5Zm-8.6 5.8a6.51 6.51 0 0 1-2.65-1.55A6.253 6.253 0 0 1 2 8.5h3a12.5 12.5 0 0 0 1.4 5.3ZM6 7.5c.04-1.95.61-3.85 1.65-5.5h.7C9.39 3.65 9.96 5.55 10 7.5H6Zm5 0a11.638 11.638 0 0 0-1.4-5.3 6.046 6.046 0 0 1 4.35 5.3H11Z"/></svg>